# xmcd CD database file
#
# Track frame offsets:
#	150
#	24850
#	30961
#	65531
#	69484
#	103462
#	115948
#	126143
#	145751
#	176107
#	182980
#	205793
#	235272
#
# Disc length: 4126 seconds
#
# Revision: 0
# Processed by: cddbd v1.5.2PL0 Copyright (c) Steve Scherf et al.
# Submitted via: CDex 1.51
#
DISCID=b7101c0d
DTITLE=Marc Sarrazy - Laurent Rochelle  - Intranquillite
DYEAR=2007
DGENRE=Jazz
TTITLE0=Intranquillite
TTITLE1=Arachnoid Party
TTITLE2=Cyclotimic Girl
TTITLE3=Incertitude 32
TTITLE4=In the Glubb
TTITLE5=Pop-Mechanics # 747
TTITLE6=Le Palais des Larmes
TTITLE7=Chant d'Insomnie
TTITLE8=Syndrome de la Mouche
TTITLE9=Persistance de la Retine
TTITLE10=K.
TTITLE11=Trois variations sur un je t'aime
TTITLE12=Song for an Alter Ego
EXTD=YEAR: 2007
EXTT0=
EXTT1=
EXTT2=
EXTT3=
EXTT4=
EXTT5=
EXTT6=
EXTT7=
EXTT8=
EXTT9=
EXTT10=
EXTT11=
EXTT12=
PLAYORDER=
